HIERARCHY
ROOT Hips
{
	OFFSET -3.958830 18.904000 13.208200
	CHANNELS 6 Xposition Yposition Zposition Zrotation Yrotation Xrotation 
	JOINT LHipJoint
	{
		OFFSET 0.000000 0.000000 0.000000
		CHANNELS 3 Zrotation Yrotation Xrotation
		JOINT LeftUpLeg
		{
			OFFSET 1.800000 -1.400000 0.085000
			CHANNELS 3 Zrotation Yrotation Xrotation
			JOINT LeftLeg
			{
				OFFSET 2.215000 -6.000000 0.000000
				CHANNELS 3 Zrotation Yrotation Xrotation
				JOINT LeftFoot
				{
					OFFSET 2.500000 -6.900000 0.000000
					CHANNELS 3 Zrotation Yrotation Xrotation
					JOINT LeftToeBase
					{
						OFFSET 0.200000 -0.500000 1.950000
						CHANNELS 3 Zrotation Yrotation Xrotation
						End Site
						{
							OFFSET 0.000000 0.000000 0.000000
						}
					}
				}
			}
		}
	}
	JOINT RHipJoint
	{
		OFFSET 0.000000 0.000000 0.000000
		CHANNELS 3 Zrotation Yrotation Xrotation
		JOINT RightUpLeg
		{
			OFFSET -1.800000 -1.400000 0.085000
			CHANNELS 3 Zrotation Yrotation Xrotation
			JOINT RightLeg
			{
				OFFSET -2.215000 -6.000000 0.000000
				CHANNELS 3 Zrotation Yrotation Xrotation
				JOINT RightFoot
				{
					OFFSET -2.500000 -6.900000 0.000000
					CHANNELS 3 Zrotation Yrotation Xrotation
					JOINT RightToeBase
					{
						OFFSET -0.200000 -0.500000 1.950000
						CHANNELS 3 Zrotation Yrotation Xrotation
						End Site
						{
							OFFSET 0.000000 0.000000 0.000000
						}
					}
				}
			}
		}
	}
	JOINT LowerBack
	{
		OFFSET 0.000000 0.000000 0.000000
		CHANNELS 3 Zrotation Yrotation Xrotation
		JOINT Spine
		{
			OFFSET -0.087000 1.940000 -0.288900
			CHANNELS 3 Zrotation Yrotation Xrotation
			JOINT Spine1
			{
				OFFSET 0.000000 1.950000 0.060000
				CHANNELS 3 Zrotation Yrotation Xrotation
				JOINT Neck
				{
					OFFSET 0.000000 0.000000 0.000000
					CHANNELS 3 Zrotation Yrotation Xrotation
					JOINT Neck1
					{
						OFFSET 0.000000 1.600000 0.340000
						CHANNELS 3 Zrotation Yrotation Xrotation
						JOINT Head
						{
							OFFSET 0.000000 1.667000 -0.240000
							CHANNELS 3 Zrotation Yrotation Xrotation
							End Site
							{
								OFFSET 0.000000 0.000000 0.000000
							}
						}
					}
				}
				JOINT LeftShoulder
				{
					OFFSET 0.000000 0.000000 0.000000
					CHANNELS 3 Zrotation Yrotation Xrotation
					JOINT LeftArm
					{
						OFFSET 2.700000 1.550000 -0.730000
						CHANNELS 3 Zrotation Yrotation Xrotation
						JOINT LeftForeArm
						{
							OFFSET 5.450000 0.000000 0.000000
							CHANNELS 3 Zrotation Yrotation Xrotation
							JOINT LeftHand
							{
								OFFSET 3.450000 0.000000 0.000000
								CHANNELS 3 Zrotation Yrotation Xrotation
								JOINT LeftHandIndex1
								{
									OFFSET 0.750000 0.000000 0.000000
									CHANNELS 3 Zrotation Yrotation Xrotation
									End Site
									{
										OFFSET 0.000000 0.000000 0.000000
									}
								}
							}
						}
					}
				}
				JOINT RightShoulder
				{
					OFFSET 0.000000 0.000000 0.000000
					CHANNELS 3 Zrotation Yrotation Xrotation
					JOINT RightArm
					{
						OFFSET -2.700000 1.550000 -0.730000
						CHANNELS 3 Zrotation Yrotation Xrotation
						JOINT RightForeArm
						{
							OFFSET -5.450000 0.000000 0.000000
							CHANNELS 3 Zrotation Yrotation Xrotation
							JOINT RightHand
							{
								OFFSET -3.450000 0.000000 0.000000
								CHANNELS 3 Zrotation Yrotation Xrotation
								JOINT RightHandIndex1
								{
									OFFSET -0.750000 0.000000 0.000000
									CHANNELS 3 Zrotation Yrotation Xrotation
									End Site
									{
										OFFSET 0.000000 0.000000 0.000000
									}
								}
							}
						}
					}
				}
			}
		}
	}
}
MOTION
Frames: 9
Frame Time: 0.016667
0.888630 17.003310 0.159550 -1.921050 -1.423742 -8.032494 -15.208504 13.609696 2.810014 -0.432949 -0.804061 -1.827853 -7.614416 7.536169 20.034380 -0.335713 5.548454 2.791890 0.291340 -0.013360 0.275030 18.408374 -9.094870 4.208285 0.158024 5.186987 -49.964878 1.657883 -6.035265 31.992318 -0.128302 -3.616545 3.112967 0.119710 0.219600 0.079870 -3.702773 -4.296303 -8.025684 14.209467 -11.356332 20.497850 -3.553009 -9.179454 5.490814 0.733738 -4.853061 -8.494578 -13.495317 6.027565 36.806856 -6.382450 6.026280 -9.736810 -22.206125 -11.058583 1.182360 -34.624770 -20.445000 -4.511235 14.541554 -69.423560 -12.082777 -3.628313 2.727601 0.558030 0.169730 -0.116560 0.077480 20.851367 9.368486 6.655881 50.573850 0.066296 -13.317343 29.117380 63.483404 11.958262 1.769591 -1.654986 -0.347060 0.307200 0.090520 -0.344090 
0.891340 17.005970 0.158650 -1.989993 -1.416876 -8.040790 -15.205997 13.598724 2.799512 -0.419327 -0.722278 -1.644597 -7.539285 7.478787 19.694360 -0.340867 5.518497 2.805988 0.290580 -0.014570 0.274540 18.415688 -9.081512 4.225635 0.146762 5.229127 -50.198788 1.674277 -6.093195 32.251702 -0.134954 -3.662029 3.095752 0.119760 0.222190 0.079330 -3.717725 -4.286682 -8.023220 14.391781 -11.445588 20.491380 -3.634506 -9.247287 5.537560 0.736273 -4.897233 -8.490996 -13.559785 6.056374 36.733055 -6.380290 6.022780 -9.738510 -22.203074 -11.046689 1.185412 -34.589803 -20.427904 -4.565723 15.616593 -69.740054 -12.846232 -3.625870 2.711814 0.557730 0.170410 -0.118000 0.077970 20.836415 9.349861 6.659399 50.524786 0.103533 -13.278340 29.412356 63.927359 12.235162 1.769467 -1.660721 -0.348600 0.309290 0.091200 -0.343610 
0.897880 17.011520 0.157440 -2.161616 -1.401929 -8.063574 -15.199094 13.574357 2.778941 -0.375826 -0.552749 -1.248809 -7.386584 7.358291 18.960172 -0.348882 5.453822 2.834270 0.289470 -0.014710 0.272250 18.431994 -9.058402 4.257945 0.136926 5.312713 -50.624028 1.763260 -6.225415 32.739167 -0.148143 -3.752290 3.061743 0.120270 0.224920 0.078810 -3.752972 -4.257427 -8.016981 14.837840 -11.627710 20.435163 -3.829745 -9.374827 5.674870 0.759812 -4.975655 -8.513259 -13.684903 6.082801 36.643364 -6.402080 6.000930 -9.702360 -22.157115 -11.089931 1.215902 -34.544712 -20.435236 -4.671929 17.752463 -70.244414 -14.355472 -3.619355 2.681174 0.555210 0.171370 -0.119740 0.079090 20.723542 9.375426 6.699708 50.464611 0.170348 -13.223436 29.968636 64.774141 12.751231 1.769903 -1.673330 -0.349050 0.310560 0.091610 -0.341640 
0.906150 17.018790 0.155990 -2.377733 -1.338323 -8.076510 -15.192783 13.542718 2.755898 -0.342643 -0.306427 -0.672202 -7.155441 7.176947 17.849015 -0.355827 5.359732 2.874792 0.288660 -0.013780 0.267780 18.451583 -9.023197 4.299123 0.095492 5.404622 -51.207646 1.893718 -6.410405 33.380001 -0.165943 -3.876063 3.016528 0.120520 0.228510 0.080300 -3.793283 -4.229320 -8.011364 15.384878 -11.860292 20.319302 -4.041293 -9.549535 5.877028 0.787620 -5.067092 -8.570878 -13.844090 6.129486 36.564088 -6.413640 5.980820 -9.570000 -22.044627 -11.185844 1.290265 -34.561681 -20.464249 -4.798635 20.526171 -70.770365 -16.321142 -3.610156 2.641785 0.549290 0.173650 -0.121290 0.082650 20.534762 9.446805 6.766667 50.373004 0.253834 -13.156175 30.649369 65.861591 13.406409 1.770935 -1.691626 -0.346770 0.309580 0.090700 -0.337200 
0.914690 17.027520 0.155050 -2.549961 -1.220700 -8.117583 -15.190217 13.506729 2.743602 -0.366930 0.012877 0.122652 -6.887482 6.952862 16.366140 -0.364273 5.253023 2.920026 0.288300 -0.013880 0.265090 18.469488 -8.981857 4.336974 -0.028639 5.452247 -51.840625 2.046062 -6.631553 34.102076 -0.186809 -4.021120 2.962358 0.120660 0.230030 0.082120 -3.826745 -4.208054 -8.013272 15.852539 -12.073859 20.188960 -4.243847 -9.727003 6.118768 0.823823 -5.123451 -8.638945 -13.971232 6.155887 36.603601 -6.413130 5.939750 -9.460580 -21.925216 -11.323320 1.372560 -34.598456 -20.554323 -4.908091 23.467170 -71.142095 -18.370524 -3.599285 2.594159 0.546260 0.174760 -0.122230 0.084080 20.326324 9.538939 6.847007 50.282482 0.339283 -13.098569 31.250569 66.959951 14.033140 1.770936 -1.708474 -0.345170 0.307530 0.090620 -0.334770 
0.923380 17.036490 0.154600 -2.735775 -0.980257 -8.157554 -15.191360 13.467969 2.740633 -0.339732 0.317778 0.988802 -6.691769 6.744797 14.748446 -0.370634 5.166489 2.958089 0.288150 -0.015880 0.264340 18.484919 -8.933727 4.367075 -0.236025 5.443345 -52.479663 2.261611 -6.901744 34.851059 -0.209143 -4.183696 2.902023 0.120400 0.231380 0.084010 -3.852421 -4.201659 -8.019491 16.281809 -12.320379 20.028874 -4.396942 -9.953247 6.377922 0.861393 -5.153283 -8.709459 -14.052356 6.184279 36.667977 -6.434450 5.921760 -9.344280 -21.795923 -11.495393 1.473680 -34.648323 -20.673781 -5.000899 26.517117 -71.428124 -20.481876 -3.588545 2.539822 0.544790 0.176550 -0.124700 0.083730 20.113433 9.637782 6.916760 50.109792 0.462161 -13.018413 31.749638 68.072663 14.633088 1.768915 -1.724790 -0.344930 0.304870 0.091660 -0.334730 
0.931620 17.046130 0.153710 -2.955568 -0.659037 -8.240989 -15.193098 13.429017 2.746402 -0.221363 0.581602 1.885494 -6.550044 6.559936 13.116025 -0.372914 5.105060 2.986644 0.288320 -0.018200 0.265420 18.498092 -8.890851 4.386873 -0.461151 5.398659 -53.016677 2.482898 -7.182457 35.575434 -0.232361 -4.345394 2.842891 0.120050 0.230730 0.084890 -3.873942 -4.194204 -8.030793 16.697953 -12.575417 19.926811 -4.534402 -10.185778 6.622216 0.921987 -5.117990 -8.772027 -14.008848 6.163814 36.810749 -6.485550 5.922520 -9.286700 -21.741192 -11.736648 1.577919 -34.541286 -20.766123 -5.104999 29.357848 -71.738610 -22.471259 -3.577479 2.483869 0.545520 0.177210 -0.126220 0.082610 19.933423 9.758483 6.985660 49.863192 0.584375 -12.959083 32.055742 69.133354 15.117555 1.765172 -1.737839 -0.345660 0.302930 0.092720 -0.336710 
0.938170 17.054820 0.151620 -3.171747 -0.335982 -8.286751 -15.195412 13.386090 2.750751 -0.059180 0.762544 2.605444 -6.479679 6.417727 11.738500 -0.371455 5.069566 3.005216 0.286180 -0.022320 0.264060 18.510359 -8.845222 4.412081 -0.704157 5.376270 -53.563134 2.721692 -7.469095 36.298955 -0.255108 -4.512599 2.782524 0.119060 0.232360 0.086470 -3.892614 -4.183948 -8.045758 17.071123 -12.793085 19.823824 -4.631674 -10.383378 6.834473 0.974995 -5.051878 -8.825049 -13.866843 6.092309 36.865651 -6.565390 5.933390 -9.160170 -21.674917 -11.973412 1.673062 -34.345864 -20.824662 -5.188874 31.921997 -72.103689 -24.306107 -3.569296 2.431321 0.543680 0.180440 -0.129570 0.081810 19.758927 9.872000 7.051447 49.620772 0.691607 -12.910920 32.221468 70.227942 15.533228 1.760268 -1.752094 -0.346680 0.300220 0.094690 -0.337850 
0.942930 17.061780 0.148790 -3.395726 -0.010513 -8.303349 -15.197543 13.347682 2.747575 0.104993 0.857007 3.067977 -6.400416 6.311447 10.785487 -0.368808 5.046885 3.018152 0.283490 -0.026180 0.262590 18.520584 -8.804620 4.442291 -0.922406 5.377698 -54.088496 2.911424 -7.733023 37.012337 -0.276320 -4.677360 2.725086 0.117570 0.235230 0.088750 -3.907603 -4.171168 -8.060607 17.393977 -12.970258 19.742319 -4.672901 -10.543198 6.991217 1.026219 -4.922339 -8.842858 -13.552899 5.956458 36.829073 -6.694720 5.995200 -8.970430 -21.621634 -12.160340 1.732867 -34.050082 -20.856510 -5.240396 34.217811 -72.606789 -26.023860 -3.564002 2.382994 0.538120 0.186820 -0.134730 0.081060 19.604925 9.907890 7.091763 49.402677 0.761399 -12.872473 32.264616 71.406190 15.905449 1.754134 -1.769374 -0.346460 0.295490 0.095670 -0.338620 
